/* XPM */
static char *_dd268819a7341f7c0c788efb5a5ed3d116H2XASVtxzeADj[] = {
/* columns rows colors chars-per-pixel */
"32 32 5 1 ",
"  c None",
". c black",
"X c #9190F6",
"o c #C6C3F7",
"O c #FBF7F8",
/* pixels */
"                                ",
"                                ",
"                                ",
"                                ",
"               ..               ",
"              .OO.              ",
"             .OOOO.             ",
"            .OOOOOX.            ",
"           .OOOOOXXX.           ",
"           .oOOOOXXo.           ",
"          .oXoOOXXoOO.          ",
"          .OoXoOooOOo.          ",
"         .OOOooXOOOoXX.         ",
"         .OOOOOoooOoXX.         ",
"         .OOOooXXXooXX.         ",
"         .OOOoXXXXooXX.         ",
"         .OOOoXXXXooXX.         ",
"         .OOOoXXXXooXX.         ",
"         .OOOoXXooOoXX.         ",
"         .OOOOooOOooXX.         ",
"          .OOXoOoOOoo.          ",
"          .OXoOooXOOo.          ",
"           .oOooXXXO.           ",
"           .OooXXXXX.           ",
"            .oXXXXX.            ",
"             .XXXX.             ",
"              .XX.              ",
"               ..               ",
"                                ",
"                                ",
"                                ",
"                                "
};
