/* XPM */
static char *ef055cadb0d3468bd2dc28b602ef8152Xm7p9PzX4cIRkVQj[] = {
/* columns rows colors chars-per-pixel */
"32 32 7 1 ",
"  c None",
". c black",
"X c #990D0D",
"o c #AD1818",
"O c #F4954B",
"+ c #FCA95D",
"@ c #FAF8F6",
/* pixels */
"                                ",
"                                ",
"                                ",
"                                ",
"                                ",
"                                ",
"                                ",
"                                ",
"            ........            ",
"          ..OOOOOOOO..          ",
"         .@@OOOOOOOO@@.         ",
"         .@@OOOOOOOO@@.         ",
"          .O@@OOOO@@O.          ",
"          .O..OOOO..O.          ",
"          .+..++++..+.          ",
"          .@@@++++@@@.          ",
"         .@@@@....@@@@.         ",
"         .@@@@@@@@@@@@.         ",
"        ..@@@@@@@@@@@@..        ",
"      ..oo@@@@@@@@@@@@oo..      ",
"     .+oo@@@@@@@@@@@@@@oo+.     ",
"     .+oo@oo@@@@@@@@oo@oo+.     ",
"      .oo@oo@@@@@@@@oo@oo.      ",
"      .ooXoooo@@@@ooooXoo.      ",
"       ..XooXXXooXXXooX..       ",
"         .oX+++XX+++Xo.         ",
"        ................        ",
"                                ",
"                                ",
"                                ",
"                                ",
"                                "
};
