/* XPM */
static char *_5eae2fa17bc41b7c2636f7e19eb9b52WbsPLlcochRKyWYJ[] = {
/* columns rows colors chars-per-pixel */
"32 32 5 1 ",
"  c None",
". c black",
"X c #043D00",
"o c #039002",
"O c #4542FC",
/* pixels */
"                                ",
"                                ",
"                                ",
"                                ",
"                                ",
"                                ",
"           .  ....              ",
"        ...o..XXXX..            ",
"       .oooo.ooooXXX..          ",
"      ...oooooooooXXXX.         ",
"     .oooooooooooooooXX.        ",
"     .ooXXXooooooooooXXX.       ",
"    .oooooooooooooXXXXXX.       ",
"     .oooooooooooXXooXX..       ",
"      .ooooXXooooXXXXXXXX.      ",
"     ..ooooooooooooooXooX.      ",
"    .oooooooXoooooXXXXXXX.      ",
"     .oooooXoooXXooooXXooX.     ",
"     .ooXoooooooXXXXXXXXXX.     ",
"     .oooooooooooooXXXX...      ",
"     .ooXooooXoooXXXXoXXX.      ",
"      .ooooooXXXXXXXXXoX.       ",
"       .ooo..ooXXXX.XXX.        ",
"        ..o.O.XXXX.O...         ",
"          ..OO....OO.           ",
"           .OOOOOOOO.XXXXXXXXX  ",
"          X..........XXXXXXXXXX ",
"         XXXXXXXXXXXXXXXXXXXXXXX",
"                                ",
"                                ",
"                                ",
"                                "
};
